HIERARCHY
ROOT Hips
{
	OFFSET 0.000000 8.830580 0.000000
	CHANNELS 6 Xposition Yposition Zposition Zrotation Yrotation Xrotation 
	JOINT Spine
	{
		OFFSET 0.000000 0.010000 0.000000
		CHANNELS 3 Zrotation Yrotation Xrotation
		JOINT Spine1
		{
			OFFSET 0.000000 2.459130 0.000000
			CHANNELS 3 Zrotation Yrotation Xrotation
			JOINT Neck
			{
				OFFSET 0.000000 2.484630 0.000000
				CHANNELS 3 Zrotation Yrotation Xrotation
				JOINT Head_virtual
				{
					OFFSET 0.000000 0.000000 0.000000
					CHANNELS 3 Zrotation Yrotation Xrotation
					JOINT Head
					{
						OFFSET 0.000000 0.927525 0.000000
						CHANNELS 3 Zrotation Yrotation Xrotation
						End Site
						{
							OFFSET 0.000000 0.000000 0.000000
						}
					}
				}
				JOINT LeftUpArm_virtual
				{
					OFFSET 0.000000 0.000000 0.000000
					CHANNELS 3 Zrotation Yrotation Xrotation
					JOINT LeftUpArm
					{
						OFFSET 1.248820 0.000000 0.000000
						CHANNELS 3 Zrotation Yrotation Xrotation
						JOINT LeftForeArm
						{
							OFFSET 2.597580 0.000000 0.000000
							CHANNELS 3 Zrotation Yrotation Xrotation
							JOINT LeftHand
							{
								OFFSET 2.455420 0.000000 0.000000
								CHANNELS 3 Zrotation Yrotation Xrotation
								End Site
								{
									OFFSET 0.000000 0.000000 0.000000
								}
							}
						}
					}
				}
				JOINT RightUpArm_virtual
				{
					OFFSET -0.000000 -0.000000 -0.000000
					CHANNELS 3 Zrotation Yrotation Xrotation
					JOINT RightUpArm
					{
						OFFSET -1.248820 -0.000000 -0.000000
						CHANNELS 3 Zrotation Yrotation Xrotation
						JOINT RightForeArm
						{
							OFFSET -2.597580 -0.000000 -0.000000
							CHANNELS 3 Zrotation Yrotation Xrotation
							JOINT RightHand
							{
								OFFSET -2.455420 -0.000000 -0.000000
								CHANNELS 3 Zrotation Yrotation Xrotation
								End Site
								{
									OFFSET 0.000000 0.000000 0.000000
								}
							}
						}
					}
				}
			}
		}
	}
	JOINT LeftUpLeg
	{
		OFFSET 1.271939 0.000000 0.000000
		CHANNELS 3 Zrotation Yrotation Xrotation
		JOINT LeftLowLeg
		{
			OFFSET 0.000000 -4.342910 0.000000
			CHANNELS 3 Zrotation Yrotation Xrotation
			JOINT LeftFoot
			{
				OFFSET 0.000000 -4.487670 0.000000
				CHANNELS 3 Zrotation Yrotation Xrotation
				JOINT LeftToeBase
				{
					OFFSET 0.000000 0.000000 1.515070
					CHANNELS 3 Zrotation Yrotation Xrotation
					End Site
					{
						OFFSET 0.000000 0.000000 0.000000
					}
				}
			}
		}
	}
	JOINT RightUpLeg
	{
		OFFSET -1.271939 0.000000 0.000000
		CHANNELS 3 Zrotation Yrotation Xrotation
		JOINT RightLowLeg
		{
			OFFSET 0.000000 -4.342910 0.000000
			CHANNELS 3 Zrotation Yrotation Xrotation
			JOINT RightFoot
			{
				OFFSET 0.000000 -4.487670 0.000000
				CHANNELS 3 Zrotation Yrotation Xrotation
				JOINT RightToeBase
				{
					OFFSET 0.000000 0.000000 1.515070
					CHANNELS 3 Zrotation Yrotation Xrotation
					End Site
					{
						OFFSET 0.000000 0.000000 0.000000
					}
				}
			}
		}
	}
}
MOTION
Frames: 17
Frame Time: 0.041667
-15.847606 9.258628 46.228017 -174.514345 -0.473878 175.513614 5.473502 0.103207 -23.173740 -3.297790 0.344512 39.307347 0.000000 0.000000 0.000000 1.148750 2.172957 -15.402792 5.567597 5.165012 -68.824452 -28.537500 -2.828270 -7.383330 -36.154701 0.310174 34.024799 0.000000 -25.364799 0.000000 8.984160 7.601840 -1.052580 29.922100 1.818770 -1.950670 41.305599 6.530930 25.939899 0.000000 26.362499 0.000000 -6.373560 -0.787361 -7.761020 5.148676 11.940656 11.699611 0.000000 0.000000 2.617500 -4.757716 6.454643 7.098224 0.000000 0.000000 -9.858020 12.104824 15.392616 8.977359 0.000000 0.000000 7.518290 13.578568 -23.929017 7.165388 0.000000 0.000000 -10.403390 
-15.847206 9.258116 46.229637 -174.515616 -0.481317 175.594853 5.484398 0.168845 -23.212906 -3.347836 0.362656 39.313039 0.000000 0.000000 0.000000 1.200137 2.140922 -15.335356 5.553262 5.137689 -68.801097 -28.505100 -2.772600 -7.433310 -36.306198 0.732760 33.679001 0.000000 -24.445400 0.000000 8.763600 7.566590 -1.117810 29.920099 1.734830 -2.033170 41.557301 6.150570 25.927200 0.000000 25.737499 0.000000 -6.031400 -1.078040 -7.812250 5.142575 11.988507 11.639396 0.000000 0.000000 2.556510 -4.771282 6.402669 7.114422 0.000000 0.000000 -9.844690 12.069840 15.352589 8.897322 0.000000 0.000000 7.489620 13.568626 -23.856829 7.173237 0.000000 0.000000 -10.540300 
-15.848063 9.257579 46.230375 -174.532823 -0.545356 175.665713 5.508219 0.261046 -23.221756 -3.501737 0.335498 39.236001 0.000000 0.000000 0.000000 1.268468 2.137496 -15.171740 5.535228 5.151776 -68.862913 -28.438400 -2.673840 -7.443270 -36.444199 1.098310 33.306099 0.000000 -23.619699 0.000000 8.351350 7.785420 -1.066890 30.003799 1.648090 -1.982910 41.739498 5.801200 25.865999 0.000000 25.099501 0.000000 -5.494580 -1.520670 -6.928020 5.111307 12.001471 11.592176 0.000000 0.000000 2.469730 -4.758012 6.348057 7.161740 0.000000 0.000000 -9.850400 12.183166 16.059442 8.782871 0.000000 0.000000 7.678970 13.895555 -24.445974 6.810918 0.000000 0.000000 -10.478590 
-15.848105 9.257054 46.232108 -174.524370 -0.500333 175.720120 5.550608 0.399675 -23.216197 -3.605315 0.349658 39.197571 0.000000 0.000000 0.000000 1.350088 2.132355 -15.064670 5.512013 5.162291 -68.862481 -28.348700 -2.577170 -7.514980 -36.599300 1.425790 32.994900 0.000000 -22.906099 0.000000 7.994690 8.052670 -0.843939 30.029699 1.593370 -1.981040 41.955299 5.450910 25.785200 0.000000 24.403601 0.000000 -5.118570 -1.655090 -6.633710 5.144371 12.180646 11.606811 0.000000 0.000000 2.343490 -4.754163 6.221266 7.209451 0.000000 0.000000 -9.840930 12.225514 16.341606 8.663796 0.000000 0.000000 7.820270 14.008022 -24.622296 6.685687 0.000000 0.000000 -10.478070 
-15.847116 9.256530 46.235776 -174.521455 -0.430500 175.757747 5.557213 0.474984 -23.165542 -3.614910 0.384118 39.150348 0.000000 0.000000 0.000000 1.375586 2.124391 -14.974641 5.482530 5.162128 -68.876459 -28.315399 -2.490360 -7.596030 -36.699902 1.716070 32.791500 0.000000 -22.367701 0.000000 7.688350 8.252270 -0.816796 30.059900 1.548760 -1.974290 42.061699 5.148530 25.910101 0.000000 23.789600 0.000000 -4.981230 -1.681740 -6.883760 5.195204 12.444319 11.646212 0.000000 0.000000 2.194760 -4.760350 6.030411 7.276009 0.000000 0.000000 -9.836880 12.156381 16.096701 8.537994 0.000000 0.000000 7.906080 13.901651 -24.356602 6.770656 0.000000 0.000000 -10.492800 
-15.846765 9.255112 46.244762 -174.521955 -0.288444 175.818610 5.590541 0.621799 -23.045936 -3.659321 0.423766 39.061773 0.000000 0.000000 0.000000 1.412407 2.120509 -14.919158 5.480950 5.168992 -68.918483 -28.295200 -2.437550 -7.666300 -36.734200 1.943170 32.644501 0.000000 -22.009199 0.000000 7.424590 8.461970 -0.603841 30.116501 1.540200 -1.997830 42.112400 4.849370 25.731800 0.000000 23.308399 0.000000 -4.277230 -2.279830 -5.055070 5.155054 12.454684 11.579027 0.000000 0.000000 2.160790 -4.770562 6.178176 7.238343 0.000000 0.000000 -9.814520 12.112099 16.157382 8.331664 0.000000 0.000000 8.093290 13.982258 -24.218753 6.700471 0.000000 0.000000 -10.487270 
-15.844625 9.255037 46.247455 -174.507543 -0.293492 175.817749 5.544511 0.538595 -23.012075 -3.524562 0.458375 39.080888 0.000000 0.000000 0.000000 1.340993 2.099232 -14.898436 5.523123 5.119976 -68.905286 -28.325399 -2.377260 -7.698360 -36.778198 2.113390 32.577202 0.000000 -21.813400 0.000000 7.202180 8.577620 -0.612227 30.116501 1.492480 -2.012620 42.146000 4.604660 25.549900 0.000000 22.830700 0.000000 -3.777820 -2.857080 -6.965330 5.226376 12.637370 11.657015 0.000000 0.000000 1.983810 -4.773001 5.980237 7.339651 0.000000 0.000000 -9.848270 12.115564 16.092991 8.269711 0.000000 0.000000 8.173250 14.010635 -24.141351 6.706273 0.000000 0.000000 -10.502960 
-15.842379 9.254850 46.251317 -174.498567 -0.313253 175.810047 5.463854 0.367578 -22.958999 -3.278922 0.503878 39.084201 0.000000 0.000000 0.000000 1.162002 2.071471 -14.836388 5.598468 5.038919 -68.941188 -28.442101 -2.359560 -7.727140 -36.746498 2.267460 32.575401 0.000000 -21.785400 0.000000 6.929850 8.634580 -0.438291 30.028700 1.446960 -2.048510 42.182400 4.346030 25.274599 0.000000 22.516701 0.000000 -3.513130 -3.164730 -6.989180 5.248353 12.631613 11.674086 0.000000 0.000000 1.910920 -4.776021 5.957787 7.365110 0.000000 0.000000 -9.814480 12.129834 16.073811 8.224694 0.000000 0.000000 8.228730 14.018810 -24.133327 6.696317 0.000000 0.000000 -10.513860 
-15.841030 9.254742 46.254797 -174.504495 -0.341278 175.814511 5.412103 0.278456 -22.914486 -3.170270 0.523433 39.063140 0.000000 0.000000 0.000000 1.077549 2.070377 -14.737056 5.630844 5.012800 -68.973416 -28.500999 -2.368800 -7.767300 -36.704601 2.418420 32.689999 0.000000 -21.876400 0.000000 6.864730 8.627650 -0.398087 29.991600 1.382470 -2.099860 42.197498 4.128410 25.067400 0.000000 22.327400 0.000000 -3.306410 -3.370610 -6.867500 5.233838 12.567913 11.656478 0.000000 0.000000 1.879320 -4.790544 5.987333 7.382353 0.000000 0.000000 -9.793720 12.123985 16.055776 8.175351 0.000000 0.000000 8.273840 14.032169 -24.138375 6.676496 0.000000 0.000000 -10.494500 
-15.838820 9.254966 46.257665 -174.509369 -0.375966 175.816307 5.362365 0.192474 -22.892636 -3.092682 0.532931 39.057313 0.000000 0.000000 0.000000 1.043022 2.021069 -14.691798 5.679806 4.945447 -69.002907 -28.528999 -2.358430 -7.777110 -36.656399 2.477930 32.818401 0.000000 -22.090401 0.000000 6.965080 8.627590 -0.419769 29.932199 1.307070 -2.125590 42.257099 3.948020 24.997499 0.000000 22.063200 0.000000 -3.513780 -2.750590 -6.406550 5.229758 12.510162 11.632809 0.000000 0.000000 1.869700 -4.803248 5.998602 7.401412 0.000000 0.000000 -9.804250 12.139357 16.092703 8.150788 0.000000 0.000000 8.286010 14.020142 -24.216300 6.672458 0.000000 0.000000 -10.468010 
-15.837825 9.255255 46.260585 -174.516755 -0.415895 175.806566 5.355868 0.190894 -22.842734 -3.132624 0.512773 39.015760 0.000000 0.000000 0.000000 1.080335 2.030163 -14.510498 5.647884 4.968242 -69.053133 -28.520201 -2.368820 -7.757850 -36.597099 2.485680 32.904400 0.000000 -22.380501 0.000000 7.028740 8.607450 -0.513758 29.938400 1.217770 -2.173170 42.244801 3.822520 25.393700 0.000000 21.891100 0.000000 -3.997130 -2.397330 -5.983700 5.210264 12.429289 11.601146 0.000000 0.000000 1.892240 -4.799723 6.045842 7.406676 0.000000 0.000000 -9.785370 12.134608 16.077127 8.130200 0.000000 0.000000 8.307120 14.050461 -24.226380 6.669585 0.000000 0.000000 -10.461830 
-15.836882 9.255829 46.264459 -174.519470 -0.449202 175.787574 5.376705 0.213002 -22.792666 -3.226444 0.467763 39.008047 0.000000 0.000000 0.000000 1.108411 2.036457 -14.367357 5.672754 4.976618 -69.101660 -28.487801 -2.383070 -7.770190 -36.546299 2.438680 32.980999 0.000000 -22.723600 0.000000 7.127420 8.545900 -0.755982 29.968100 1.134020 -2.219990 42.190102 3.745790 25.401400 0.000000 21.955200 0.000000 -3.932020 -2.566150 -5.862410 5.190681 12.334652 11.546573 0.000000 0.000000 1.970330 -4.778596 6.115425 7.392582 0.000000 0.000000 -9.772370 12.139675 16.077150 8.113911 0.000000 0.000000 8.329900 14.056832 -24.256098 6.670711 0.000000 0.000000 -10.442890 
-15.835323 9.256540 46.267024 -174.525486 -0.496130 175.770347 5.407804 0.253682 -22.778535 -3.397414 0.400238 39.041135 0.000000 0.000000 0.000000 1.178339 2.051537 -14.305805 5.694197 4.995385 -69.055608 -28.395000 -2.386460 -7.798080 -36.534302 2.334470 32.993500 0.000000 -23.116199 0.000000 7.342190 8.508170 -0.727771 30.000900 1.177090 -2.198710 42.168098 3.657720 25.401400 0.000000 22.054100 0.000000 -3.956400 -2.711620 -6.272600 5.152398 12.137386 11.480095 0.000000 0.000000 2.074360 -4.776605 6.263486 7.356303 0.000000 0.000000 -9.755170 12.142993 16.049002 8.137123 0.000000 0.000000 8.279590 14.013694 -24.291706 6.718898 0.000000 0.000000 -10.437580 
-15.834365 9.257007 46.271357 -174.530837 -0.569113 175.749090 5.429389 0.236638 -22.733704 -3.495042 0.327556 39.047661 0.000000 0.000000 0.000000 1.129779 2.069762 -14.201848 5.713170 4.999112 -69.087038 -28.390499 -2.463660 -7.813490 -36.484402 2.209520 32.966301 0.000000 -23.536100 0.000000 7.566740 8.408340 -0.744907 30.026100 1.183830 -2.157000 42.081799 3.635890 25.129400 0.000000 22.257999 0.000000 -3.628360 -3.032120 -6.080020 5.109359 11.932427 11.388158 0.000000 0.000000 2.203780 -4.758261 6.405554 7.315457 0.000000 0.000000 -9.770850 12.127386 15.942387 8.158973 0.000000 0.000000 8.210610 13.984846 -24.268845 6.772046 0.000000 0.000000 -10.465320 
-15.834012 9.258057 46.275618 -174.552781 -0.653121 175.751969 5.442808 0.204778 -22.745753 -3.586442 0.261524 39.103284 0.000000 0.000000 0.000000 1.084303 2.075759 -14.116256 5.726661 4.990058 -69.101124 -28.388201 -2.589200 -7.846200 -36.421902 2.079910 32.974098 0.000000 -24.061100 0.000000 7.863460 8.363130 -0.851680 30.000900 1.148000 -2.162440 42.067001 3.693680 25.035900 0.000000 22.385401 0.000000 -3.716210 -2.962280 -6.313260 5.121615 12.079585 11.346356 0.000000 0.000000 2.196770 -4.723811 6.198660 7.405608 0.000000 0.000000 -9.805980 12.094719 15.873327 8.155277 0.000000 0.000000 8.153930 13.970942 -24.291185 6.802297 0.000000 0.000000 -10.420510 
-15.831601 9.259413 46.276845 -174.543083 -0.750937 175.650427 5.420359 0.082264 -22.717525 -3.550486 0.216845 39.220737 0.000000 0.000000 0.000000 0.988006 2.074752 -14.099962 5.774406 4.951671 -69.071185 -28.386900 -2.735450 -7.875520 -36.399601 1.916720 32.973999 0.000000 -24.647800 0.000000 8.141810 8.276450 -0.898063 29.928699 1.141690 -2.126340 42.018101 3.766430 24.842501 0.000000 22.629601 0.000000 -3.681770 -3.024550 -6.221470 5.149309 11.952551 11.378683 0.000000 0.000000 2.273030 -4.732973 6.210993 7.404655 0.000000 0.000000 -9.789410 12.125178 15.682431 8.296328 0.000000 0.000000 8.032010 13.825630 -24.290733 6.942241 0.000000 0.000000 -10.423170 
-15.831078 9.260246 46.282707 -174.550836 -0.786565 175.593863 5.445760 0.046225 -22.661608 -3.619700 0.147102 39.318453 0.000000 0.000000 0.000000 0.865515 2.086663 -14.162778 5.814759 4.931150 -69.076836 -28.376499 -2.899580 -7.972050 -36.349300 1.739690 33.034199 0.000000 -25.266399 0.000000 8.450810 8.144660 -1.101780 29.883200 1.184850 -2.136420 41.946201 3.887330 24.867901 0.000000 22.881800 0.000000 -3.982890 -2.870380 -6.138620 5.126391 11.843973 11.336447 0.000000 0.000000 2.377900 -4.722828 6.280324 7.392692 0.000000 0.000000 -9.808790 12.125285 15.668827 8.351713 0.000000 0.000000 7.967630 13.832685 -24.305670 6.976778 0.000000 0.000000 -10.410580 
